<svg xmlns="http://www.w3.org/2000/svg" xmlns:xlink="http://www.w3.org/1999/xlink" width="500" zoomAndPan="magnify" viewBox="0 0 375 374.999991" height="500" preserveAspectRatio="xMidYMid meet" version="1.0"><defs><clipPath id="c00b45e004"><path d="M 76.644531 34.054688 L 305.1875 34.054688 L 305.1875 262.597656 L 76.644531 262.597656 Z M 76.644531 34.054688 " clip-rule="nonzero"/></clipPath><clipPath id="64486ef774"><path d="M 190.917969 34.054688 C 127.804688 34.054688 76.644531 85.214844 76.644531 148.324219 C 76.644531 211.4375 127.804688 262.597656 190.917969 262.597656 C 254.027344 262.597656 305.1875 211.4375 305.1875 148.324219 C 305.1875 85.214844 254.027344 34.054688 190.917969 34.054688 Z M 190.917969 34.054688 " clip-rule="nonzero"/></clipPath><clipPath id="a48ececed2"><path d="M 0.644531 0.0546875 L 229.1875 0.0546875 L 229.1875 228.597656 L 0.644531 228.597656 Z M 0.644531 0.0546875 " clip-rule="nonzero"/></clipPath><clipPath id="9342d23666"><path d="M 114.917969 0.0546875 C 51.804688 0.0546875 0.644531 51.214844 0.644531 114.324219 C 0.644531 177.4375 51.804688 228.597656 114.917969 228.597656 C 178.027344 228.597656 229.1875 177.4375 229.1875 114.324219 C 229.1875 51.214844 178.027344 0.0546875 114.917969 0.0546875 Z M 114.917969 0.0546875 " clip-rule="nonzero"/></clipPath><clipPath id="892f35e95b"><rect x="0" width="230" y="0" height="229"/></clipPath><clipPath id="95c4cf78e0"><path d="M 56.082031 16.660156 L 318.582031 16.660156 L 318.582031 358.660156 L 56.082031 358.660156 Z M 56.082031 16.660156 " clip-rule="nonzero"/></clipPath></defs><g clip-path="url(#c00b45e004)"><g clip-path="url(#64486ef774)"><g transform="matrix(1, 0, 0, 1, 76, 34)"><g clip-path="url(#892f35e95b)"><g clip-path="url(#a48ececed2)"><g clip-path="url(#9342d23666)"><path fill="#fbfbfb" d="M 0.644531 0.0546875 L 229.1875 0.0546875 L 229.1875 228.597656 L 0.644531 228.597656 Z M 0.644531 0.0546875 " fill-opacity="1" fill-rule="nonzero"/></g></g></g></g></g></g><g clip-path="url(#95c4cf78e0)"><path fill="#fa6b2b" d="M 187.496094 16.769531 C 114.921875 16.769531 56.082031 75.605469 56.082031 148.183594 C 56.082031 176.144531 65.578125 201.535156 79.460938 224.960938 C 86.417969 236.699219 94.476562 247.941406 102.992188 258.769531 L 187.5 358.21875 L 264.074219 266.699219 C 275.222656 253.183594 285.945312 239.101562 294.902344 224.332031 C 309.128906 200.875 318.910156 175.667969 318.910156 148.183594 C 318.910156 75.605469 260.078125 16.769531 187.496094 16.769531 Z M 187.496094 251.671875 C 150.921875 251.671875 118.777344 232.695312 100.371094 204.050781 C 90.015625 187.933594 84.007812 168.761719 84.007812 148.183594 C 84.007812 91.027344 130.339844 44.691406 187.496094 44.691406 C 244.652344 44.691406 290.988281 91.027344 290.988281 148.183594 C 290.988281 168.761719 284.980469 187.933594 274.625 204.050781 C 256.21875 232.695312 224.074219 251.671875 187.496094 251.671875 Z M 187.496094 251.671875 " fill-opacity="1" fill-rule="nonzero"/></g><path fill="#fa6b2b" d="M 259.042969 193.78125 C 258.746094 199.710938 254.230469 204.871094 248.292969 205.597656 L 138.214844 205.597656 C 133.351562 205.164062 128.15625 200.859375 127.65625 195.859375 C 127.125 190.484375 129.382812 184.214844 129.292969 178.742188 L 118.53125 178.742188 C 117.878906 178.742188 116.164062 177.640625 115.675781 177.089844 C 112.585938 173.554688 115.1875 168.476562 119.582031 168.109375 L 180.429688 168.097656 C 181.46875 168.261719 182.617188 169.710938 182.347656 170.796875 L 177.21875 180.03125 C 176.589844 182.191406 177.296875 185.378906 180.027344 185.320312 C 181.671875 185.285156 185.167969 182.117188 186.582031 180.996094 C 195.550781 173.871094 204.191406 166.316406 213.136719 159.171875 C 215.816406 157.140625 216.742188 153.777344 214.054688 151.28125 L 177.515625 124.269531 C 174.921875 123.226562 173.816406 125.890625 174.277344 128.121094 C 174.554688 129.457031 177.855469 133.453125 178.902344 134.773438 C 179.625 135.683594 181.019531 136.488281 181.15625 137.746094 L 134.007812 137.746094 C 133.996094 136.554688 134.109375 135.347656 134.21875 134.160156 C 135.035156 125.074219 136.1875 115.84375 137.695312 106.890625 C 139.109375 102.910156 143.179688 99.269531 147.464844 98.824219 C 151.765625 98.371094 156.699219 99.101562 161.066406 98.796875 C 161.457031 84.535156 170.960938 71.039062 184.847656 67.125 C 205.882812 61.191406 225.0625 77.886719 225.84375 98.796875 C 230.117188 99.078125 234.859375 98.425781 239.074219 98.789062 C 242.964844 99.125 247.011719 102.371094 248.636719 105.832031 C 249.761719 108.21875 249.910156 111.054688 250.238281 113.660156 C 253.605469 140.300781 255.730469 167.128906 259.042969 193.78125 Z M 173.164062 98.796875 L 213.546875 98.796875 C 213.113281 85.945312 202.339844 75.53125 189.144531 78.390625 C 179.582031 80.46875 173.882812 89.445312 173.164062 98.796875 Z M 173.164062 98.796875 " fill-opacity="1" fill-rule="nonzero"/><path fill="#fbfbfb" d="M 213.546875 98.796875 L 173.164062 98.796875 C 173.882812 89.445312 179.582031 80.46875 189.144531 78.390625 C 202.339844 75.53125 213.113281 85.945312 213.546875 98.796875 Z M 213.546875 98.796875 " fill-opacity="1" fill-rule="nonzero"/><path fill="#fa6b2b" d="M 181.875 141.644531 C 188.332031 142.847656 186.207031 150.917969 180.648438 151.6875 L 120.394531 151.664062 C 114.734375 150.648438 115.324219 142.257812 120.785156 141.640625 C 125.625 141.09375 131.316406 142.167969 136.21875 141.488281 Z M 181.875 141.644531 " fill-opacity="1" fill-rule="nonzero"/><path fill="#fa6b2b" d="M 161.976562 156.007812 C 167.566406 157.207031 166.664062 164.527344 161.355469 165.402344 L 133.722656 165.402344 C 127.835938 164.375 129.25 157.046875 134.367188 156.042969 Z M 161.976562 156.007812 " fill-opacity="1" fill-rule="nonzero"/><path stroke-linecap="butt" transform="matrix(0.438422, 0, 0, 0.438422, 81.309513, 34.054824)" fill="none" stroke-linejoin="miter" d="M 120.199987 236.510272 L 227.741247 236.510272 C 227.429404 233.641317 224.248606 231.805899 222.600294 229.729916 C 220.212468 226.718404 212.683689 217.603681 212.051093 214.55653 C 210.999737 209.469035 213.52121 203.392553 219.437315 205.771469 L 302.779564 267.382721 C 308.909505 273.076082 306.797883 280.747418 300.685762 285.380513 C 280.282325 301.676533 260.573852 318.908083 240.116956 335.159554 C 236.891609 337.716666 228.91734 344.942512 225.166315 345.0227 C 218.938367 345.156347 217.325693 337.885952 218.760171 332.958834 L 230.458735 311.896072 C 231.073511 309.419148 228.454031 306.113613 226.084024 305.739401 L 87.296103 305.766131 C 77.272581 306.603652 71.338655 318.186389 78.386305 326.249756 C 79.50003 327.506037 83.411431 330.0186 84.899368 330.0186 L 109.445861 330.0186 C 109.650786 342.501227 104.500923 356.801453 105.712655 369.061335 C 106.85311 380.465876 118.703141 390.275563 129.795839 391.273461 L 380.873943 391.273461 C 394.416835 389.616238 404.716562 377.846395 405.393706 364.321322 C 397.838198 303.529771 392.991268 242.33728 385.311022 181.572458 C 384.562599 175.629623 384.224027 169.16111 381.658005 163.717223 C 377.951529 155.823142 368.720978 148.4191 359.84682 147.652858 C 350.233148 146.824247 339.416653 148.312183 329.669334 147.670677 C 327.887375 99.97653 284.140267 61.896053 236.161006 75.430036 C 204.486674 84.357654 182.809136 115.141005 181.918157 147.670677 C 171.957003 148.365642 160.703928 146.699509 150.89424 147.733046 C 141.120192 148.748763 131.836183 157.052695 128.610836 166.131779 C 125.171654 186.553035 122.543264 207.606888 120.681116 228.331077 C 120.431641 231.039656 120.173257 233.792784 120.199987 236.510272 Z M 120.199987 236.510272 " stroke="#ffffff" stroke-width="1" stroke-opacity="1" stroke-miterlimit="10"/><path stroke-linecap="butt" transform="matrix(0.438422, 0, 0, 0.438422, 81.309513, 34.054824)" fill="none" stroke-linejoin="miter" d="M 301.621291 147.670677 C 300.632303 118.357442 276.059081 94.603921 245.961784 101.125893 C 224.150598 105.865906 211.151203 126.340621 209.5118 147.670677 Z M 301.621291 147.670677 " stroke="#ffffff" stroke-width="1" stroke-opacity="1" stroke-miterlimit="10"/><path stroke-linecap="butt" transform="matrix(0.438422, 0, 0, 0.438422, 81.309513, 34.054824)" fill="none" stroke-linejoin="miter" d="M 125.242932 245.045858 L 229.38065 245.40225 C 244.108546 248.146468 239.261616 266.55411 226.582973 268.30934 L 89.149341 268.255882 C 76.239044 265.939334 77.584424 246.801088 90.040321 245.39334 C 101.079561 244.145969 114.061136 246.596163 125.242932 245.045858 Z M 125.242932 245.045858 " stroke="#ffffff" stroke-width="1" stroke-opacity="1" stroke-miterlimit="10"/><path stroke-linecap="butt" transform="matrix(0.438422, 0, 0, 0.438422, 81.309513, 34.054824)" fill="none" stroke-linejoin="miter" d="M 121.019688 278.243765 L 183.994139 278.163577 C 196.74406 280.898885 194.685897 297.595846 182.577482 299.591641 L 119.549571 299.591641 C 106.122506 297.248364 109.347853 280.533583 121.019688 278.243765 Z M 121.019688 278.243765 " stroke="#ffffff" stroke-width="1" stroke-opacity="1" stroke-miterlimit="10"/></svg>