<svg xmlns="http://www.w3.org/2000/svg" xmlns:xlink="http://www.w3.org/1999/xlink" width="500" zoomAndPan="magnify" viewBox="0 0 375 374.999991" height="500" preserveAspectRatio="xMidYMid meet" version="1.0"><defs><clipPath id="528a869506"><path d="M 45 0 L 330 0 C 354.851562 0 375 20.148438 375 45 L 375 330 C 375 354.851562 354.851562 375 330 375 L 45 375 C 20.148438 375 0 354.851562 0 330 L 0 45 C 0 20.148438 20.148438 0 45 0 Z M 45 0 " clip-rule="nonzero"/></clipPath><clipPath id="4246c021bd"><path d="M 0 0 L 375 0 L 375 375 L 0 375 Z M 0 0 " clip-rule="nonzero"/></clipPath><clipPath id="4e8cd6b927"><path d="M 45 0 L 330 0 C 354.851562 0 375 20.148438 375 45 L 375 330 C 375 354.851562 354.851562 375 330 375 L 45 375 C 20.148438 375 0 354.851562 0 330 L 0 45 C 0 20.148438 20.148438 0 45 0 Z M 45 0 " clip-rule="nonzero"/></clipPath><clipPath id="1eb4d0631b"><rect x="0" width="375" y="0" height="375"/></clipPath></defs><g clip-path="url(#528a869506)"><g transform="matrix(1, 0, 0, 1, 0, 0)"><g clip-path="url(#1eb4d0631b)"><g clip-path="url(#4246c021bd)"><g clip-path="url(#4e8cd6b927)"><rect x="-82.5" width="540" fill="#fa6b2b" height="539.999987" y="-82.499998" fill-opacity="1"/></g></g></g></g></g><path fill="#fbfbfb" d="M 329.414062 291.90625 C 328.804688 304.261719 319.394531 315.011719 307.019531 316.519531 L 77.714844 316.519531 C 67.578125 315.613281 56.753906 306.65625 55.714844 296.234375 C 54.609375 285.039062 59.3125 271.976562 59.128906 260.578125 L 36.707031 260.578125 C 35.347656 260.578125 31.777344 258.285156 30.761719 257.136719 C 24.324219 249.773438 29.738281 239.1875 38.898438 238.429688 L 165.648438 238.402344 C 167.8125 238.742188 170.207031 241.765625 169.648438 244.03125 L 158.964844 263.265625 C 157.65625 267.765625 159.128906 274.40625 164.816406 274.277344 C 168.242188 274.207031 175.523438 267.609375 178.472656 265.273438 C 197.148438 250.433594 215.152344 234.695312 233.792969 219.808594 C 239.371094 215.578125 241.296875 208.574219 235.699219 203.367188 L 159.585938 147.101562 C 154.179688 144.925781 151.875 150.480469 152.835938 155.128906 C 153.410156 157.902344 160.289062 166.234375 162.472656 168.984375 C 163.976562 170.882812 166.882812 172.554688 167.164062 175.175781 L 68.949219 175.175781 C 68.921875 172.691406 69.15625 170.179688 69.386719 167.703125 C 71.085938 148.78125 73.488281 129.546875 76.628906 110.894531 C 79.578125 102.601562 88.054688 95.023438 96.976562 94.089844 C 105.9375 93.148438 116.21875 94.675781 125.316406 94.035156 C 126.128906 64.324219 145.929688 36.214844 174.855469 28.058594 C 218.675781 15.703125 258.632812 50.480469 260.257812 94.035156 C 269.164062 94.621094 279.035156 93.261719 287.824219 94.019531 C 295.925781 94.722656 304.355469 101.480469 307.742188 108.695312 C 310.082031 113.664062 310.390625 119.574219 311.074219 124.996094 C 318.089844 180.5 322.519531 236.386719 329.414062 291.90625 Z M 150.515625 94.035156 L 234.640625 94.035156 C 233.738281 67.265625 211.296875 45.566406 183.804688 51.53125 C 163.886719 55.859375 152.011719 74.554688 150.515625 94.035156 Z M 150.515625 94.035156 " fill-opacity="1" fill-rule="nonzero"/><path fill="#fa6b2b" d="M 234.640625 94.035156 L 150.515625 94.035156 C 152.011719 74.554688 163.886719 55.859375 183.804688 51.53125 C 211.296875 45.566406 233.738281 67.265625 234.640625 94.035156 Z M 234.640625 94.035156 " fill-opacity="1" fill-rule="nonzero"/><path fill="#fbfbfb" d="M 168.664062 183.292969 C 182.117188 185.804688 177.6875 202.609375 166.105469 204.21875 L 40.589844 204.171875 C 28.796875 202.054688 30.023438 184.574219 41.402344 183.285156 C 51.484375 182.152344 63.339844 184.390625 73.550781 182.972656 Z M 168.664062 183.292969 " fill-opacity="1" fill-rule="nonzero"/><path fill="#fbfbfb" d="M 127.207031 213.214844 C 138.851562 215.714844 136.980469 230.96875 125.917969 232.785156 L 68.355469 232.785156 C 56.089844 230.648438 59.039062 215.378906 69.695312 213.289062 Z M 127.207031 213.214844 " fill-opacity="1" fill-rule="nonzero"/><path stroke-linecap="butt" transform="matrix(0.913312, 0, 0, 0.913312, -40.832659, -40.832664)" fill="none" stroke-linejoin="miter" d="M 120.201891 236.511016 L 227.738856 236.511016 C 227.430911 233.64114 224.248812 231.810578 222.597885 229.731949 C 220.211311 226.720931 212.679489 217.59806 212.050768 214.56138 C 210.998623 209.471733 213.522061 203.389819 219.441448 205.772116 L 302.779067 267.378227 C 308.908029 273.079487 306.799461 280.748173 300.691885 285.380179 C 280.281973 301.67988 260.569216 318.911969 240.120811 335.160346 C 236.891666 337.718 228.919312 344.941877 225.16837 345.018863 C 218.941038 345.160005 217.328603 337.889081 218.761403 332.961961 L 230.459037 311.901943 C 231.07065 309.421275 228.44884 306.110866 226.079374 305.738766 L 87.298822 305.768705 C 77.269224 306.598446 71.341282 318.189154 78.389801 326.251326 C 79.501825 327.508768 83.411016 330.019375 84.899417 330.019375 L 109.449478 330.019375 C 109.650497 342.499702 104.500972 356.802037 105.711367 369.059959 C 106.849053 380.471033 118.700659 390.278226 129.79951 391.270493 L 380.86879 391.270493 C 394.418371 389.619566 404.721698 377.849223 405.388912 364.321028 C 397.839982 303.531827 392.989848 242.340587 385.308331 181.568494 C 384.559853 175.631998 384.221969 169.160876 381.660038 163.720514 C 377.951867 155.820869 368.72207 148.421635 359.851543 147.651772 C 350.228262 146.822031 339.420247 148.310432 329.668655 147.66888 C 327.889417 99.980173 284.13984 61.901917 236.160296 75.430113 C 204.489007 84.360518 182.808823 115.137911 181.919204 147.66888 C 171.958038 148.37031 160.700937 146.697998 150.889467 147.728758 C 141.120767 148.750965 131.839646 157.048372 128.610501 166.128473 C 125.171781 186.551215 122.541418 207.611232 120.680917 228.329088 C 120.428573 231.040715 120.171952 233.790835 120.201891 236.511016 Z M 120.201891 236.511016 " stroke="#ffffff" stroke-width="1" stroke-opacity="1" stroke-miterlimit="10"/><path stroke-linecap="butt" transform="matrix(0.913312, 0, 0, 0.913312, -40.832659, -40.832664)" fill="none" stroke-linejoin="miter" d="M 301.619997 147.66888 C 300.632006 118.358503 276.060561 94.59969 245.958936 101.13069 C 224.150441 105.869622 211.148318 126.339411 209.510222 147.66888 Z M 301.619997 147.66888 " stroke="#ffffff" stroke-width="1" stroke-opacity="1" stroke-miterlimit="10"/><path stroke-linecap="butt" transform="matrix(0.913312, 0, 0, 0.913312, -40.832659, -40.832664)" fill="none" stroke-linejoin="miter" d="M 125.240213 245.047936 L 229.381229 245.398652 C 244.111265 248.148772 239.261132 266.548486 226.579785 268.310616 L 89.150769 268.259292 C 76.238463 265.94115 77.581446 246.801512 90.040388 245.390098 C 101.079361 244.149764 114.060099 246.600493 125.240213 245.047936 Z M 125.240213 245.047936 " stroke="#ffffff" stroke-width="1" stroke-opacity="1" stroke-miterlimit="10"/><path stroke-linecap="butt" transform="matrix(0.913312, 0, 0, 0.913312, -40.832659, -40.832664)" fill="none" stroke-linejoin="miter" d="M 121.018801 278.241843 L 183.989279 278.160579 C 196.739058 280.897868 194.690368 297.599608 182.577864 299.58842 L 119.551785 299.58842 C 106.121961 297.248893 109.351106 280.530045 121.018801 278.241843 Z M 121.018801 278.241843 " stroke="#ffffff" stroke-width="1" stroke-opacity="1" stroke-miterlimit="10"/></svg>