<svg xmlns="http://www.w3.org/2000/svg" xmlns:xlink="http://www.w3.org/1999/xlink" width="500" zoomAndPan="magnify" viewBox="0 0 375 149.999998" height="200" preserveAspectRatio="xMidYMid meet" version="1.0"><defs><g/><clipPath id="5bfc2a1756"><path d="M 0.398438 7 L 38 7 L 38 65 L 0.398438 65 Z M 0.398438 7 " clip-rule="nonzero"/></clipPath><clipPath id="f359f820e1"><rect x="0" width="365" y="0" height="83"/></clipPath></defs><g transform="matrix(1, 0, 0, 1, 8, 34)"><g clip-path="url(#f359f820e1)"><g clip-path="url(#5bfc2a1756)"><g fill="#fa6b2b" fill-opacity="1"><g transform="translate(0.469227, 64.151767)"><g><path d="M 2.890625 0 C 2.191406 0 1.550781 -0.296875 0.96875 -0.890625 C 0.425781 -1.421875 0.15625 -2.164062 0.15625 -3.125 L 0 -53.9375 C 0 -54.6875 0.296875 -55.410156 0.890625 -56.109375 C 1.472656 -56.742188 2.085938 -57.0625 2.734375 -57.0625 L 33.796875 -56.984375 C 34.703125 -56.984375 35.453125 -56.71875 36.046875 -56.1875 C 36.628906 -55.59375 36.921875 -54.921875 36.921875 -54.171875 L 36.921875 -42.21875 C 36.921875 -41.570312 36.597656 -40.957031 35.953125 -40.375 C 35.367188 -39.894531 34.648438 -39.597656 33.796875 -39.484375 L 18.625 -38.765625 L 18.78125 -34.75 L 27.453125 -34.671875 C 28.148438 -34.671875 28.765625 -34.484375 29.296875 -34.109375 C 29.828125 -33.734375 30.066406 -33.226562 30.015625 -32.59375 L 29.625 -24 C 29.625 -23.46875 29.351562 -23.015625 28.8125 -22.640625 C 28.332031 -22.316406 27.742188 -22.101562 27.046875 -22 L 19.109375 -21.59375 L 19.265625 -18.375 L 33.796875 -17.734375 C 34.648438 -17.628906 35.367188 -17.335938 35.953125 -16.859375 C 36.597656 -16.316406 36.921875 -15.703125 36.921875 -15.015625 L 36.921875 -3.046875 C 36.921875 -2.296875 36.628906 -1.628906 36.046875 -1.046875 C 35.453125 -0.503906 34.703125 -0.234375 33.796875 -0.234375 L 12.359375 0 C 12.253906 0 12.117188 0 11.953125 0 C 11.796875 0 11.664062 -0.0234375 11.5625 -0.078125 Z M 2.890625 0 "/></g></g></g></g><g fill="#fa6b2b" fill-opacity="1"><g transform="translate(40.599006, 64.151767)"><g><path d="M 28.09375 0.71875 C 27.445312 0.71875 26.882812 0.398438 26.40625 -0.234375 C 25.925781 -0.878906 25.6875 -1.601562 25.6875 -2.40625 L 25.84375 -22.3125 C 25.6875 -25.09375 25.148438 -27.300781 24.234375 -28.9375 C 23.328125 -30.570312 21.882812 -31.039062 19.90625 -30.34375 C 19.207031 -30.019531 18.507812 -29.535156 17.8125 -28.890625 C 17.125 -28.253906 16.722656 -27.289062 16.609375 -26 L 17.171875 -2 C 17.285156 -1.257812 16.976562 -0.660156 16.25 -0.203125 C 15.53125 0.253906 14.847656 0.484375 14.203125 0.484375 L 3.046875 0.5625 C 2.242188 0.5625 1.5625 0.335938 1 -0.109375 C 0.4375 -0.566406 0.15625 -1.171875 0.15625 -1.921875 L 0 -41.09375 C 0 -41.738281 0.289062 -42.3125 0.875 -42.8125 C 1.46875 -43.320312 2.140625 -43.578125 2.890625 -43.578125 L 13.328125 -43.578125 C 14.234375 -43.578125 14.925781 -43.335938 15.40625 -42.859375 C 19.53125 -43.660156 23.265625 -43.882812 26.609375 -43.53125 C 29.953125 -43.1875 32.691406 -42.375 34.828125 -41.09375 C 36.753906 -39.96875 38.253906 -38.75 39.328125 -37.4375 C 40.398438 -36.132812 41.148438 -34.613281 41.578125 -32.875 C 42.003906 -31.132812 42.269531 -29.054688 42.375 -26.640625 C 42.488281 -24.234375 42.546875 -21.375 42.546875 -18.0625 L 42.453125 -2.40625 C 42.453125 -1.550781 42.210938 -0.828125 41.734375 -0.234375 C 41.203125 0.398438 40.613281 0.71875 39.96875 0.71875 Z M 28.09375 0.71875 "/></g></g></g><g fill="#fa6b2b" fill-opacity="1"><g transform="translate(86.346946, 64.151767)"><g><path d="M 28.25 1.125 C 25.46875 1.769531 22.601562 1.96875 19.65625 1.71875 C 16.71875 1.476562 13.960938 0.800781 11.390625 -0.3125 C 8.828125 -1.4375 6.6875 -2.988281 4.96875 -4.96875 C 2.726562 -7.644531 1.257812 -10.867188 0.5625 -14.640625 C -0.132812 -18.421875 -0.160156 -22.179688 0.484375 -25.921875 C 1.285156 -30.097656 2.929688 -33.617188 5.421875 -36.484375 C 7.910156 -39.347656 11.023438 -41.335938 14.765625 -42.453125 C 18.515625 -43.578125 22.632812 -43.578125 27.125 -42.453125 C 30.125 -41.765625 32.46875 -40.765625 34.15625 -39.453125 C 35.84375 -38.140625 37.046875 -36.648438 37.765625 -34.984375 C 38.484375 -33.328125 38.921875 -31.671875 39.078125 -30.015625 C 39.242188 -28.359375 39.273438 -26.832031 39.171875 -25.4375 C 39.117188 -24.207031 38.289062 -23.515625 36.6875 -23.359375 L 26.8125 -23.109375 C 26.113281 -23.003906 25.484375 -23.164062 24.921875 -23.59375 C 24.359375 -24.019531 24.050781 -24.554688 24 -25.203125 C 24 -25.472656 23.957031 -25.914062 23.875 -26.53125 C 23.800781 -27.144531 23.65625 -27.769531 23.4375 -28.40625 C 23.21875 -29.050781 22.84375 -29.484375 22.3125 -29.703125 C 20.863281 -30.234375 19.765625 -30.109375 19.015625 -29.328125 C 18.273438 -28.554688 17.753906 -27.34375 17.453125 -25.6875 C 17.160156 -24.03125 17.015625 -22.101562 17.015625 -19.90625 L 17.015625 -19.578125 C 17.066406 -16.472656 17.628906 -14.171875 18.703125 -12.671875 C 19.773438 -11.179688 21.378906 -10.835938 23.515625 -11.640625 C 23.992188 -11.910156 24.351562 -12.351562 24.59375 -12.96875 C 24.84375 -13.582031 25.003906 -14.207031 25.078125 -14.84375 C 25.160156 -15.488281 25.203125 -15.945312 25.203125 -16.21875 C 25.253906 -16.800781 25.5625 -17.304688 26.125 -17.734375 C 26.6875 -18.160156 27.316406 -18.320312 28.015625 -18.21875 L 37.8125 -17.984375 C 39.351562 -17.816406 40.207031 -17.09375 40.375 -15.8125 C 40.425781 -14.476562 40.367188 -12.976562 40.203125 -11.3125 C 40.046875 -9.65625 39.609375 -8.007812 38.890625 -6.375 C 38.171875 -4.75 36.96875 -3.265625 35.28125 -1.921875 C 33.59375 -0.585938 31.25 0.425781 28.25 1.125 Z M 28.25 1.125 "/></g></g></g><g fill="#fa6b2b" fill-opacity="1"><g transform="translate(128.402953, 64.151767)"><g><path d="M 26.640625 1.4375 C 24.878906 1.4375 24.132812 0.289062 24.40625 -2 C 20.007812 0.613281 15.515625 1.601562 10.921875 0.96875 C 8.296875 0.59375 6.207031 -0.15625 4.65625 -1.28125 C 3.101562 -2.40625 1.976562 -3.726562 1.28125 -5.25 C 0.582031 -6.78125 0.191406 -8.347656 0.109375 -9.953125 C 0.0351562 -11.554688 0.109375 -13.03125 0.328125 -14.375 C 0.753906 -16.5625 1.78125 -18.390625 3.40625 -19.859375 C 5.039062 -21.335938 7.019531 -22.488281 9.34375 -23.3125 C 11.675781 -24.144531 14.019531 -24.613281 16.375 -24.71875 L 24.40625 -25.203125 C 24.289062 -26.703125 24.15625 -27.890625 24 -28.765625 C 23.84375 -29.648438 23.398438 -30.265625 22.671875 -30.609375 C 21.953125 -30.960938 20.601562 -31.113281 18.625 -31.0625 C 17.707031 -31.0625 17.019531 -30.820312 16.5625 -30.34375 C 16.113281 -29.863281 15.742188 -29.328125 15.453125 -28.734375 C 15.160156 -28.148438 14.835938 -27.640625 14.484375 -27.203125 C 14.140625 -26.773438 13.617188 -26.617188 12.921875 -26.734375 L 4.25 -27.859375 C 3.5 -27.960938 2.921875 -28.132812 2.515625 -28.375 C 2.117188 -28.613281 1.921875 -29.054688 1.921875 -29.703125 C 1.921875 -31.679688 2.175781 -33.507812 2.6875 -35.1875 C 3.195312 -36.875 4.238281 -38.347656 5.8125 -39.609375 C 7.394531 -40.867188 9.765625 -41.847656 12.921875 -42.546875 C 16.242188 -43.296875 19.453125 -43.640625 22.546875 -43.578125 C 25.648438 -43.523438 28.472656 -43.03125 31.015625 -42.09375 C 33.554688 -41.15625 35.644531 -39.722656 37.28125 -37.796875 C 38.914062 -35.878906 39.921875 -33.394531 40.296875 -30.34375 C 40.347656 -29.914062 40.398438 -28.347656 40.453125 -25.640625 C 40.503906 -22.941406 40.554688 -19.460938 40.609375 -15.203125 C 40.660156 -10.953125 40.6875 -6.257812 40.6875 -1.125 C 40.800781 -0.375 40.550781 0.222656 39.9375 0.671875 C 39.320312 1.128906 38.769531 1.359375 38.28125 1.359375 Z M 21.671875 -17.421875 C 20.015625 -17.421875 18.785156 -16.988281 17.984375 -16.125 C 17.179688 -15.269531 16.789062 -14.265625 16.8125 -13.109375 C 16.84375 -11.960938 17.285156 -10.960938 18.140625 -10.109375 C 18.992188 -9.253906 20.25 -8.828125 21.90625 -8.828125 C 22.875 -8.828125 23.359375 -9.203125 23.359375 -9.953125 L 23.359375 -16.296875 C 23.359375 -17.046875 22.796875 -17.421875 21.671875 -17.421875 Z M 21.671875 -17.421875 "/></g></g></g><g fill="#fa6b2b" fill-opacity="1"><g transform="translate(172.304927, 64.151767)"><g><path d="M 2.890625 0.15625 C 2.191406 0.15625 1.550781 -0.132812 0.96875 -0.71875 C 0.425781 -1.257812 0.15625 -2.007812 0.15625 -2.96875 L 0 -40.609375 C 0 -41.359375 0.296875 -42.082031 0.890625 -42.78125 C 1.472656 -43.425781 2.085938 -43.75 2.734375 -43.75 L 13.40625 -43.671875 C 14.15625 -43.671875 14.820312 -43.375 15.40625 -42.78125 C 15.945312 -42.195312 16.21875 -41.445312 16.21875 -40.53125 C 17.125 -41.550781 18.21875 -42.40625 19.5 -43.09375 C 20.789062 -43.789062 22.367188 -44.140625 24.234375 -44.140625 C 26.910156 -44.140625 29.265625 -43.5625 31.296875 -42.40625 C 33.335938 -41.257812 35.289062 -39.804688 37.15625 -38.046875 C 37.75 -37.515625 38.054688 -36.882812 38.078125 -36.15625 C 38.109375 -35.4375 37.910156 -34.753906 37.484375 -34.109375 L 32.90625 -26.8125 C 32.476562 -26.113281 31.820312 -25.679688 30.9375 -25.515625 C 30.0625 -25.359375 29.21875 -25.492188 28.40625 -25.921875 C 27.664062 -26.347656 26.945312 -26.65625 26.25 -26.84375 C 25.550781 -27.03125 24.773438 -27.125 23.921875 -27.125 C 21.242188 -27.125 19.410156 -26.601562 18.421875 -25.5625 C 17.429688 -24.519531 16.851562 -23.25 16.6875 -21.75 L 17.09375 -3.125 C 17.195312 -2.269531 16.929688 -1.523438 16.296875 -0.890625 C 15.753906 -0.242188 15.082031 0.078125 14.28125 0.078125 Z M 2.890625 0.15625 "/></g></g></g><g fill="#fa6b2b" fill-opacity="1"><g transform="translate(207.940171, 64.151767)"><g><path d="M 3.453125 15.578125 C 2.546875 15.410156 1.914062 14.960938 1.5625 14.234375 C 1.21875 13.515625 1.070312 12.835938 1.125 12.203125 L 3.046875 4.171875 C 3.210938 3.160156 3.734375 2.476562 4.609375 2.125 C 5.492188 1.78125 6.3125 1.738281 7.0625 2 C 8.613281 2.539062 10.257812 3.0625 12 3.5625 C 13.738281 4.070312 15.488281 4.367188 17.25 4.453125 C 19.019531 4.535156 20.707031 4.253906 22.3125 3.609375 C 23.539062 3.128906 24.367188 2.351562 24.796875 1.28125 C 25.222656 0.207031 25.4375 -1.15625 25.4375 -2.8125 C 22.925781 -2.269531 20.34375 -2.109375 17.6875 -2.328125 C 15.039062 -2.546875 12.582031 -3.160156 10.3125 -4.171875 C 8.039062 -5.191406 6.128906 -6.582031 4.578125 -8.34375 C 2.546875 -10.695312 1.207031 -13.585938 0.5625 -17.015625 C -0.0820312 -20.441406 -0.109375 -23.785156 0.484375 -27.046875 C 1.234375 -31.054688 2.785156 -34.304688 5.140625 -36.796875 C 7.492188 -39.285156 10.351562 -40.984375 13.71875 -41.890625 C 17.09375 -42.804688 20.65625 -42.8125 24.40625 -41.90625 C 24.664062 -41.84375 24.890625 -41.769531 25.078125 -41.6875 C 25.265625 -41.613281 25.441406 -41.550781 25.609375 -41.5 C 26.140625 -42.570312 26.992188 -43.109375 28.171875 -43.109375 L 37.890625 -43.109375 C 38.847656 -43.109375 39.582031 -42.8125 40.09375 -42.21875 C 40.601562 -41.632812 40.859375 -41.019531 40.859375 -40.375 C 40.960938 -35.1875 41.082031 -30.835938 41.21875 -27.328125 C 41.351562 -23.828125 41.457031 -20.867188 41.53125 -18.453125 C 41.613281 -16.046875 41.679688 -13.929688 41.734375 -12.109375 C 41.785156 -10.296875 41.8125 -8.546875 41.8125 -6.859375 C 41.8125 -5.171875 41.757812 -3.257812 41.65625 -1.125 C 41.5 3.050781 40.46875 6.445312 38.5625 9.0625 C 36.664062 11.6875 33.816406 13.859375 30.015625 15.578125 C 27.765625 16.585938 25.195312 17.171875 22.3125 17.328125 C 19.425781 17.492188 16.375 17.375 13.15625 16.96875 C 9.945312 16.570312 6.710938 16.109375 3.453125 15.578125 Z M 22.3125 -29.53125 C 20.0625 -29.425781 18.28125 -28.835938 16.96875 -27.765625 C 15.664062 -26.703125 14.8125 -25.40625 14.40625 -23.875 C 14.007812 -22.351562 14.050781 -20.851562 14.53125 -19.375 C 15.007812 -17.90625 15.914062 -16.71875 17.25 -15.8125 C 18.59375 -14.90625 20.359375 -14.53125 22.546875 -14.6875 C 23.566406 -14.789062 24.410156 -15.097656 25.078125 -15.609375 C 25.753906 -16.117188 26.0625 -16.722656 26 -17.421875 L 25.609375 -28.40625 C 25.554688 -29.15625 25.21875 -29.546875 24.59375 -29.578125 C 23.976562 -29.609375 23.21875 -29.59375 22.3125 -29.53125 Z M 22.3125 -29.53125 "/></g></g></g><g fill="#fa6b2b" fill-opacity="1"><g transform="translate(252.965772, 64.151767)"><g><path d="M 26.640625 1.4375 C 24.878906 1.4375 24.132812 0.289062 24.40625 -2 C 20.007812 0.613281 15.515625 1.601562 10.921875 0.96875 C 8.296875 0.59375 6.207031 -0.15625 4.65625 -1.28125 C 3.101562 -2.40625 1.976562 -3.726562 1.28125 -5.25 C 0.582031 -6.78125 0.191406 -8.347656 0.109375 -9.953125 C 0.0351562 -11.554688 0.109375 -13.03125 0.328125 -14.375 C 0.753906 -16.5625 1.78125 -18.390625 3.40625 -19.859375 C 5.039062 -21.335938 7.019531 -22.488281 9.34375 -23.3125 C 11.675781 -24.144531 14.019531 -24.613281 16.375 -24.71875 L 24.40625 -25.203125 C 24.289062 -26.703125 24.15625 -27.890625 24 -28.765625 C 23.84375 -29.648438 23.398438 -30.265625 22.671875 -30.609375 C 21.953125 -30.960938 20.601562 -31.113281 18.625 -31.0625 C 17.707031 -31.0625 17.019531 -30.820312 16.5625 -30.34375 C 16.113281 -29.863281 15.742188 -29.328125 15.453125 -28.734375 C 15.160156 -28.148438 14.835938 -27.640625 14.484375 -27.203125 C 14.140625 -26.773438 13.617188 -26.617188 12.921875 -26.734375 L 4.25 -27.859375 C 3.5 -27.960938 2.921875 -28.132812 2.515625 -28.375 C 2.117188 -28.613281 1.921875 -29.054688 1.921875 -29.703125 C 1.921875 -31.679688 2.175781 -33.507812 2.6875 -35.1875 C 3.195312 -36.875 4.238281 -38.347656 5.8125 -39.609375 C 7.394531 -40.867188 9.765625 -41.847656 12.921875 -42.546875 C 16.242188 -43.296875 19.453125 -43.640625 22.546875 -43.578125 C 25.648438 -43.523438 28.472656 -43.03125 31.015625 -42.09375 C 33.554688 -41.15625 35.644531 -39.722656 37.28125 -37.796875 C 38.914062 -35.878906 39.921875 -33.394531 40.296875 -30.34375 C 40.347656 -29.914062 40.398438 -28.347656 40.453125 -25.640625 C 40.503906 -22.941406 40.554688 -19.460938 40.609375 -15.203125 C 40.660156 -10.953125 40.6875 -6.257812 40.6875 -1.125 C 40.800781 -0.375 40.550781 0.222656 39.9375 0.671875 C 39.320312 1.128906 38.769531 1.359375 38.28125 1.359375 Z M 21.671875 -17.421875 C 20.015625 -17.421875 18.785156 -16.988281 17.984375 -16.125 C 17.179688 -15.269531 16.789062 -14.265625 16.8125 -13.109375 C 16.84375 -11.960938 17.285156 -10.960938 18.140625 -10.109375 C 18.992188 -9.253906 20.25 -8.828125 21.90625 -8.828125 C 22.875 -8.828125 23.359375 -9.203125 23.359375 -9.953125 L 23.359375 -16.296875 C 23.359375 -17.046875 22.796875 -17.421875 21.671875 -17.421875 Z M 21.671875 -17.421875 "/></g></g></g><g fill="#fa6b2b" fill-opacity="1"><g transform="translate(296.065144, 64.151767)"><g><path d="M 15.09375 0.71875 L 3.203125 0.796875 C 2.347656 0.796875 1.625 0.503906 1.03125 -0.078125 C 0.445312 -0.671875 0.15625 -1.421875 0.15625 -2.328125 L 0 -53.140625 C 0 -53.941406 0.304688 -54.660156 0.921875 -55.296875 C 1.535156 -55.941406 2.242188 -56.265625 3.046875 -56.265625 L 14.125 -56.265625 C 14.976562 -56.265625 15.710938 -55.957031 16.328125 -55.34375 C 16.941406 -54.726562 17.25 -53.992188 17.25 -53.140625 L 18.21875 -2.484375 C 18.269531 -1.578125 17.960938 -0.816406 17.296875 -0.203125 C 16.628906 0.410156 15.894531 0.71875 15.09375 0.71875 Z M 15.09375 0.71875 "/></g></g></g><g fill="#fa6b2b" fill-opacity="1"><g transform="translate(317.494447, 64.151767)"><g><path d="M 14.765625 0.40625 C 11.179688 -0.5625 8.332031 -1.789062 6.21875 -3.28125 C 4.101562 -4.78125 2.578125 -6.800781 1.640625 -9.34375 C 0.703125 -11.882812 0.15625 -15.140625 0 -19.109375 C 0.15625 -23.117188 0.710938 -26.6875 1.671875 -29.8125 C 2.640625 -32.945312 4.164062 -35.582031 6.25 -37.71875 C 8.34375 -39.863281 11.179688 -41.441406 14.765625 -42.453125 C 16.585938 -42.992188 18.675781 -43.289062 21.03125 -43.34375 C 23.382812 -43.394531 25.710938 -43.207031 28.015625 -42.78125 C 30.316406 -42.351562 32.320312 -41.65625 34.03125 -40.6875 C 37.78125 -38.601562 40.296875 -35.78125 41.578125 -32.21875 C 42.859375 -28.664062 43.609375 -24.453125 43.828125 -19.578125 C 43.828125 -15.835938 43.128906 -12.398438 41.734375 -9.265625 C 40.347656 -6.140625 37.78125 -3.53125 34.03125 -1.4375 C 32.320312 -0.53125 30.316406 0.132812 28.015625 0.5625 C 25.710938 0.988281 23.382812 1.175781 21.03125 1.125 C 18.675781 1.070312 16.585938 0.832031 14.765625 0.40625 Z M 17.171875 -20.46875 C 17.222656 -17.945312 17.71875 -16.03125 18.65625 -14.71875 C 19.59375 -13.414062 20.660156 -12.738281 21.859375 -12.6875 C 23.066406 -12.632812 24.164062 -13.222656 25.15625 -14.453125 C 26.144531 -15.679688 26.695312 -17.523438 26.8125 -19.984375 C 26.8125 -23.191406 26.316406 -25.648438 25.328125 -27.359375 C 24.335938 -29.078125 23.210938 -29.988281 21.953125 -30.09375 C 20.691406 -30.207031 19.578125 -29.472656 18.609375 -27.890625 C 17.648438 -26.316406 17.171875 -23.84375 17.171875 -20.46875 Z M 17.171875 -20.46875 "/></g></g></g></g></g></svg>